<?xml version="1.0" encoding="utf-8"?>
<!DOCTYPE svg PUBLIC "-//W3C//DTD SVG 1.0//EN" "http://www.w3.org/TR/2001/REC-SVG-20010904/DTD/svg10.dtd">
<svg version="1.0" xmlns="http://www.w3.org/2000/svg" width="954px" height="954px" viewBox="0 0 954 954" preserveAspectRatio="xMidYMid meet">
 <g fill="#000000">
  <path d="M385.4 890 c-1.2 -1.1 -0.7 -4.1 1.7 -8.6 1.2 -2.5 3.2 -8.1 4.3 -12.4 2.4 -9.4 2.1 -16.9 -1.7 -34.8 -2.1 -10.2 -2.5 -14.3 -2.5 -27 0 -14.3 0.2 -15.4 3.1 -24.7 3.1 -10 10.2 -29 14.3 -38.3 l2.3 -5.1 -3.8 -12.8 c-2.1 -7 -4.1 -12.8 -4.5 -12.8 -0.3 0 -1.6 2.6 -2.9 5.9 -2.2 5.6 -2.3 6.3 -1.9 20.8 0.5 16.7 -0.5 23.6 -5.6 39.5 -10.4 32.5 -29.9 56.2 -52.4 63.4 l-3.6 1.2 0.6 13.2 c0.5 10.9 0.4 13.5 -0.7 14.4 -3.8 3.2 -8.9 -4.9 -11.4 -18.3 l-1.4 -7.7 -4.4 -0.6 c-6.6 -0.9 -7.5 -1.3 -8.1 -3.8 -0.8 -3.4 1 -4.8 7.1 -5.6 5.8 -0.7 6.5 -1.4 6.5 -7 0 -4.4 4.7 -20.6 9 -31.6 4.4 -11.2 14.1 -30.6 27.1 -54.5 l7.6 -14 -1.4 -6.5 c-0.7 -3.6 -1.4 -8.3 -1.4 -10.4 0 -2.2 -0.2 -4 -0.4 -4 -0.3 0 -3.5 1.7 -7.3 3.7 -8.9 4.8 -24.2 9.7 -34.7 11.2 -32.2 4.5 -68.1 -14 -82.1 -42.3 -8.3 -16.6 -9.3 -34.9 -2 -33.9 1.6 0.2 2.1 1.4 3.2 6.3 2.1 10.7 6.9 18.9 16.6 28.6 7.5 7.4 9.8 9.1 18.3 13.2 12 5.8 22 8 33.4 7.4 20.8 -1.3 43.6 -15 52.1 -31.3 2.1 -3.9 4.7 -12.2 8 -25.6 2.7 -10.9 6.1 -22.4 7.5 -25.4 2.5 -5.6 2.5 -5.8 1.1 -11.2 -3.9 -15.2 -5.6 -38.1 -3.2 -42.6 0.7 -1.1 1 -3 0.8 -4.2 -0.1 -1.2 0.5 -3.3 1.3 -4.6 1 -1.4 1.8 -4.9 2 -8.6 1.4 -23.2 4.3 -35.2 11.9 -50.9 7.5 -15 18.7 -27.5 24.9 -27.5 2 0 2.6 -0.5 2.9 -2 0.2 -1.3 1.4 -2.7 3.3 -3.5 3.3 -1.6 11.4 -10.5 37 -41 9.8 -11.6 21.1 -25 25.2 -29.8 4.1 -4.8 12.8 -14.9 19.2 -22.4 18.6 -21.4 79 -93.7 104.8 -125.4 12.7 -15.7 43.2 -52 53.6 -63.7 25.2 -28.8 99.2 -108.9 105.4 -114 3.3 -2.8 6.9 -3.2 8.1 -0.8 1.5 2.6 -0.4 7.2 -12.5 30.2 -4.5 8.4 -14.9 28.2 -23.2 44.2 -21.1 40.2 -38.3 72.7 -48.4 91.3 -4.8 8.8 -15.6 28.7 -24.1 44.4 -25.2 46.7 -71 128.6 -83.9 150.3 -17.1 28.6 -34.7 52.8 -68.5 94.6 -13.8 17 -18.4 23.6 -23.3 33 -0.7 1.5 -2.7 3.7 -4.4 4.9 l-3 2.3 1.5 3.6 c1 2.7 1.2 4.3 0.6 5.8 -0.7 1.4 -0.4 3.5 1 7.6 1.6 4.8 1.9 8 1.9 24.2 0 20.4 -0.7 25.9 -6.5 49.9 l-3.3 13.6 4.7 15.4 c7.5 24.9 8.9 33.4 8.9 54.8 0 14.3 -0.4 19.7 -1.7 25.4 l-1.7 7.2 4.7 11 c7 16.5 10.3 29.5 10.3 40.3 0 5.6 -1.3 7.7 -4.4 7.2 -1.1 -0.2 -2.1 -1.8 -2.9 -4.5 -4.7 -16.2 -10.1 -29.6 -14.2 -35.4 l-2 -2.9 -2.7 4.1 c-1.5 2.2 -3.5 4.8 -4.6 5.8 -1.3 1.2 -1.9 2.9 -1.9 5.7 0 4.8 -2 14.8 -4.5 21.8 -5.9 17 -21.1 37.1 -27.5 36.1 -3.4 -0.5 -2.9 -3.1 1.8 -9.3 5.5 -7.4 10.7 -18.4 13.8 -29.1 2.3 -7.9 2.9 -10.8 2 -10.8 -0.2 0 -2.6 1.1 -5.4 2.5 -3.1 1.6 -6.5 2.5 -9.1 2.5 -3.6 0.1 -4.2 -0.2 -4.5 -2 -0.3 -1.5 0.7 -3 3.7 -5.6 5.6 -4.8 10.4 -10 13.3 -14.2 l2.5 -3.6 -3.9 -11 c-5.8 -16.4 -8.9 -29.9 -10.7 -45 -2.1 -19.6 -2.1 -19.5 -4.8 -10.2 -1.2 4.4 -3.3 10.4 -4.5 13.4 -2.1 5.3 -2.1 5.8 -0.9 11.2 2.8 12.1 4.4 28.7 3.8 39.7 -0.6 11.5 -1.5 16.4 -6.6 34 -1.9 6.1 -3.8 14.3 -4.5 18.2 -1.1 6.9 -1.1 7 -3.9 7 -2.3 0 -3 -0.5 -3.9 -3.3 -1.5 -4.5 -1.5 -15.8 0.2 -30.3 1.5 -13 1.7 -26.6 0.6 -32.6 l-0.7 -3.7 -3.1 6.5 c-4 8.6 -7.4 19 -8.6 26.6 -0.8 5.1 -0.7 8.2 0.9 19.1 3.4 22.1 2.3 34.4 -3.8 46.8 -5 10.2 -12 16.6 -15 13.6z m-58.7 -45.2 c-0.2 -2.2 -0.4 -0.5 -0.4 3.9 0 4.4 0.2 6.1 0.4 4 0.2 -2.2 0.2 -5.8 0 -7.9z m15.2 -10.2 c4.7 -2.3 7.4 -4.5 5.6 -4.6 -0.7 0 0.1 -1.4 2.2 -3.6 2.4 -2.4 4.1 -3.4 5.7 -3.3 1.8 0.2 3.4 -1.1 7.3 -6 4.8 -6.1 8.1 -11 4.7 -7.1 -0.9 1 -2.2 1.8 -2.9 1.5 -0.7 -0.2 -1.2 0.2 -1 0.8 0.3 2.5 -0.1 3.3 -2 3.4 -1.4 0.1 -1.8 -0.2 -1.4 -1.4 0.4 -0.8 -0.6 -0.1 -2 1.7 -5.3 6.8 -12.7 14 -18.3 17.7 -5.6 3.8 -4.5 4.3 2.1 0.8z m0.7 -10 c8.7 -7.1 20.7 -26.4 25.2 -40.2 1.7 -5 3.9 -15.9 3.9 -19 0 -0.4 -5.7 7.7 -12.8 18.2 -12.3 18.4 -18.8 30.4 -22.6 41.3 l-1.8 5.2 2 -1 c1.1 -0.7 3.8 -2.6 6.1 -4.4z m119.9 -17 c1.1 -8.4 -0.9 -4.3 -2.7 5.2 -0.8 4.8 -1.5 8.9 -1.4 9.3 0.2 1.9 3.4 -9.8 4.1 -14.5z m-7 -5.5 c3.1 -2.6 3.1 -2.7 0.7 -2.2 -1.3 0.3 -4.2 2.3 -6.4 4.7 l-4.1 4.2 3.3 -2 c1.8 -1.1 4.8 -3.2 6.5 -4.7z m34.6 -8.1 c-1 -3 -3 -8 -4.4 -11.1 -2.2 -5.1 -2.5 -5.4 -3.4 -3.5 -0.7 1.7 -0.4 2.9 2 6.5 1.5 2.4 3.7 6.7 4.8 9.4 2.8 6.4 3.3 5.7 1 -1.3z m-112 -3.6 c0 -0.5 -0.7 0.6 -1.8 2.3 -1 1.8 -1.8 3.7 -1.8 4.2 0 0.6 0.7 -0.6 1.8 -2.3 1 -1.8 1.8 -3.6 1.8 -4.2z m85.6 -37.5 c-1.5 -3.8 -3 -6.7 -3.3 -6.5 -0.5 0.6 3.2 16.2 4.1 17.7 0.4 0.6 0.9 -0.1 1.3 -1.7 0.6 -2 0.1 -4.3 -2.1 -9.5z m-19.7 -38.2 c-0.3 -0.9 -0.5 -0.2 -0.5 1.6 0 1.8 0.2 2.5 0.5 1.7 0.2 -0.9 0.2 -2.4 0 -3.3z m-77.3 -10.7 c-0.2 -1.2 -0.4 -0.5 -0.4 1.6 -0.1 2 0.1 3 0.4 2.1 0.2 -0.9 0.2 -2.6 0 -3.7z m76.4 -8.4 c-0.2 -1.7 -0.4 -0.4 -0.4 3 0 3.4 0.2 4.7 0.4 3.1 0.2 -1.7 0.2 -4.5 0 -6.1z m-172.2 4.8 c-2.2 -1.1 -3.5 -1.3 -4.4 -0.7 -1.6 1.4 2.2 3.4 5.3 2.8 2.1 -0.5 2.1 -0.6 -0.9 -2.1z m87.7 -18.3 c0 -0.7 -0.8 0 -4.7 4.2 l-4.2 4.4 4.5 -4.2 c2.4 -2.2 4.4 -4.2 4.4 -4.4z m-110.1 5.1 c-0.2 -0.7 0.3 -1.1 0.9 -0.9 0.7 0.1 -0.6 -2 -2.8 -4.8 -2.2 -2.7 -4.8 -6 -5.6 -7.2 l-1.7 -2.3 0.9 2.6 c1.2 3.4 3.5 8 5.8 11.2 2 2.7 2.7 3.2 2.4 1.4z m194 -14 c0 -0.9 -0.4 -1.7 -0.9 -1.7 -0.5 0 -0.9 1.4 -0.9 3.1 0 2.2 0.3 2.6 0.9 1.6 0.5 -0.7 0.9 -2.1 0.9 -3z m-5.9 -2.8 c-0.2 -1.2 -0.4 -0.3 -0.4 2 0 2.3 0.2 3.3 0.4 2.1 0.2 -1.2 0.2 -3.1 0 -4.2z m45.7 -114.6 c1.7 -1.7 1.5 -2 -3.4 -5.2 -10.2 -6.6 -19.5 -19.4 -31.8 -43.8 -7.5 -15.1 -15 -26.2 -22.3 -33.3 -2.9 -2.7 -4.1 -3.4 -4.8 -2.6 -0.8 0.8 -0.2 2.2 2.6 5.6 5.9 7.2 7.4 9.6 16.4 27 8.8 16.9 19.8 34.6 26.4 42.1 3.1 3.5 13.5 11.3 15.3 11.3 0.3 0 1 -0.5 1.7 -1.1z m-41.9 -17 c2.3 -2.5 3 -4 3 -7 0 -10 -11 -14.6 -17.1 -7.4 -3.2 3.7 -3.8 6.7 -2.5 11.2 2.3 7.8 10.9 9.5 16.7 3.2z m31.9 0 c-2.2 -2.3 -4.3 -4.2 -4.6 -4.2 -0.3 0 1.4 1.9 3.6 4.2 2.2 2.3 4.3 4.2 4.6 4.2 0.3 0 -1.4 -1.9 -3.6 -4.2z m-22.7 -5.1 c1.1 0 1.1 -0.4 -0.1 -2.8 -0.8 -1.5 -1.7 -2.8 -1.9 -2.8 -0.3 0 -0.5 1.8 -0.4 4 0 2.1 0.3 3.4 0.6 2.8 0.2 -0.7 1 -1.2 1.8 -1.2z m8.8 -14.9 c-1.6 -3.1 -3.1 -5.6 -3.3 -5.6 -0.3 0 0.7 2.5 2.3 5.6 1.6 3.1 3.1 5.6 3.3 5.6 0.3 0 -0.7 -2.5 -2.3 -5.6z m-17 -1.9 c-1 -1.6 -1.2 -1.7 -2 -0.4 -0.6 1 -0.5 1.8 0.4 2.3 1.9 1.1 2.8 0 1.6 -2z m-2.6 -4.4 c0 -0.5 -0.4 -1.3 -0.8 -2 -0.6 -0.9 -0.9 -0.8 -1.3 0.7 -0.3 1.3 0 2 0.8 2 0.7 0 1.3 -0.3 1.3 -0.7z m2.2 -26.1 c-0.9 -1.5 -2.2 -3.7 -2.9 -5.1 -0.7 -1.3 -2.3 -3.1 -3.6 -4 -1.8 -1.1 -1 0.2 2.6 5 4.9 6.6 7.1 8.9 3.9 4.1z m102.2 -14.3 c2.1 -3.3 2.3 -3.5 0.5 -1.4 -1.3 1.6 -3.7 4.7 -5.3 7 -2.1 3.3 -2.3 3.5 -0.5 1.4 1.3 -1.5 3.7 -4.7 5.3 -7z m-114 -0.7 l-3.4 -3.5 3.1 -3.2 3 -3.3 -3.5 3.3 -3.4 3.2 3.4 3.5 c1.9 2 3.6 3.5 3.9 3.5 0.3 0 -1.1 -1.6 -3 -3.5z m6.8 -14.6 c1.8 -1.8 3 -3.3 2.7 -3.3 -0.3 0 -1.9 1.5 -3.6 3.3 -1.8 1.8 -3 3.3 -2.7 3.3 0.3 0 1.9 -1.5 3.6 -3.3z m120.2 -2.8 c1.6 -2.3 2.7 -4.2 2.4 -4.2 -0.3 0 -1.8 1.9 -3.4 4.2 -1.6 2.3 -2.7 4.2 -2.4 4.2 0.3 0 1.8 -1.9 3.4 -4.2z m-107.9 -10.9 c4.5 -5.7 2.4 -4.1 -3 2.3 -2.8 3.2 -3.8 4.8 -2.4 3.4 1.4 -1.3 3.8 -3.9 5.4 -5.8z m46 -55 l2.7 -3.1 -3 2.7 c-2.9 2.6 -3.5 3.4 -2.8 3.4 0.2 0 1.5 -1.4 3.1 -3z m104.8 -5.9 c0.7 -1.2 0.3 -1.1 -0.9 0.5 -1 1.3 -2 2.8 -2 3.3 0 1 1.3 -0.7 2.9 -3.7z m-93.6 -7.2 l2.7 -3.1 -3 2.7 c-2.9 2.6 -3.5 3.4 -2.8 3.4 0.2 0 1.5 -1.4 3.1 -3z m15.3 -17.5 c2.1 -2.6 3.7 -4.7 3.4 -4.7 -0.2 0 -2.4 2.4 -4.9 5.3 -2.5 2.9 -4.1 5 -3.4 4.7 0.6 -0.4 2.8 -2.8 4.9 -5.3z m92.7 -0.9 c0.8 -1.5 1.2 -2.8 1 -2.8 -0.3 0 -1.1 1.3 -2 2.8 -0.8 1.6 -1.2 2.8 -1 2.8 0.3 0 1.1 -1.2 2 -2.8z m-76.7 -17.9 c4.3 -5.4 2.6 -4.2 -2.5 1.9 -2.5 2.9 -3.6 4.5 -2.4 3.4 1.2 -1 3.4 -3.4 4.9 -5.3z m109.3 -40.8 c0.8 -1.5 1.2 -2.8 1 -2.8 -0.3 0 -1.1 1.3 -2 2.8 -0.8 1.6 -1.2 2.8 -1 2.8 0.3 0 1.1 -1.2 2 -2.8z m-49.8 -30.7 c2.1 -2.5 3.7 -4.7 3.4 -4.7 -0.3 0 -2.2 2.1 -4.4 4.7 -2.1 2.6 -3.7 4.7 -3.4 4.7 0.3 0 2.2 -2 4.4 -4.7z m15.1 -17.9 c3.1 -4.4 1.1 -2.9 -3.1 2.3 -2.5 3 -3 3.9 -1.4 2.5 1.4 -1.3 3.4 -3.4 4.5 -4.8z m90.6 -54.8 c0.8 -1.5 1.2 -2.8 1 -2.8 -0.3 0 -1.1 1.3 -2 2.8 -0.8 1.6 -1.2 2.8 -1 2.8 0.3 0 1.1 -1.2 2 -2.8z m-34.9 -11.6 c1.8 -1.8 3 -3.3 2.7 -3.3 -0.3 0 -1.9 1.5 -3.6 3.3 -1.8 1.8 -3 3.3 -2.7 3.3 0.3 0 1.9 -1.5 3.6 -3.3z m7.1 -8.1 l2.7 -3.1 -3 2.7 c-2.9 2.6 -3.5 3.4 -2.8 3.4 0.2 0 1.5 -1.4 3.1 -3z m12.5 -13.5 c0 -0.7 -0.8 0 -4.7 4.2 l-4.2 4.4 4.5 -4.2 c2.4 -2.2 4.4 -4.2 4.4 -4.4z m5.1 -5.9 c2 -2 3.4 -3.7 3.2 -3.7 -0.3 0 -2.1 1.7 -4.1 3.7 -2 2 -3.4 3.7 -3.2 3.7 0.3 0 2.1 -1.7 4.1 -3.7z m21 -22.8 c1.8 -1.8 3 -3.3 2.7 -3.3 -0.3 0 -1.9 1.5 -3.6 3.3 -1.8 1.8 -3 3.3 -2.7 3.3 0.3 0 1.9 -1.5 3.6 -3.3z m26.1 -7.9 c1 -2 1.7 -3.7 1.4 -3.7 -0.2 0 -1.3 1.7 -2.3 3.7 -1 2 -1.7 3.7 -1.4 3.7 0.2 0 1.3 -1.7 2.3 -3.7z m-18.1 -1.1 l2.7 -3.1 -3 2.7 c-1.7 1.6 -3.1 2.9 -3.1 3.1 0 0.7 0.7 0.1 3.4 -2.7z m38.6 -40.4 c0 0.4 -0.5 1.6 -1 2.7 -0.8 1.7 -0.8 1.9 0.1 0.9 0.9 -0.8 2.2 -5.9 1.5 -5.9 -0.1 0 -1.7 1.6 -3.4 3.4 l-3.2 3.5 3.1 -2.7 c1.6 -1.6 3 -2.4 3 -2z"/>
 </g>
</svg>