<?xml version="1.0" encoding="utf-8"?>
<!DOCTYPE svg PUBLIC "-//W3C//DTD SVG 1.0//EN" "http://www.w3.org/TR/2001/REC-SVG-20010904/DTD/svg10.dtd">
<svg version="1.0" xmlns="http://www.w3.org/2000/svg" width="882px" height="928px" viewBox="0 0 882 928" preserveAspectRatio="xMidYMid meet">
 <g fill="#ffffff">
  <path d="M360.10 817.15 c-1.65 -0.30 -1.85 -1.40 -0.65 -3.05 1.95 -2.75 5.55 -10.90 6.65 -15.10 0.95 -3.60 1.10 -5.45 1.10 -12 -0.05 -4.95 -0.30 -8.55 -0.75 -10 -0.35 -1.25 -0.70 -3.50 -0.70 -5 -0.05 -1.50 -0.35 -3.85 -0.70 -5.25 -2.35 -10.15 -2.75 -13.45 -2.75 -23.75 0 -11.10 0.25 -12.75 3.80 -24.25 1.90 -6.20 9.20 -24.85 12.25 -31.35 l2.30 -4.90 -0.90 -4.10 c-2.65 -12.35 -6.45 -24.90 -7.60 -25.25 -0.35 -0.15 -1.85 2.30 -3.70 5.90 l-3.05 6.10 0.05 12.10 c0.15 18.05 -1 26.70 -5.05 38.45 -2.05 6.05 -3.10 8.50 -7.20 17.20 -1.20 2.55 -2.20 4.75 -2.20 4.90 0 0.15 -1.05 2 -2.35 4.10 -1.25 2.10 -2.85 4.85 -3.50 6.10 -0.65 1.25 -3.20 4.35 -5.65 6.90 -2.45 2.55 -4.60 5.05 -4.75 5.60 -0.20 0.55 -0.50 1 -0.70 1 -0.25 0 -1.45 0.90 -2.70 2 -1.25 1.10 -2.50 2 -2.80 2 -0.30 0 -1 0.45 -1.55 1 -0.50 0.50 -1.95 1.55 -3.10 2.30 -1.20 0.75 -2.80 1.90 -3.55 2.50 -0.85 0.75 -2.10 1.20 -3.10 1.20 -0.90 0 -1.90 0.35 -2.25 0.70 -0.30 0.40 -2.25 1.05 -4.30 1.35 l-3.70 0.65 -0.10 6 c-0.10 8.65 0.10 11 1.15 14.75 1.25 4.40 1.25 5.05 -0.30 5.05 -0.90 0 -1.65 -0.70 -3.15 -2.85 -4.25 -6.30 -6 -11.05 -6.50 -18 l-0.35 -4.35 -4.40 -0.15 c-4.85 -0.20 -6.35 -0.70 -6.35 -2.15 0 -1.05 0.05 -1.05 6.20 -2.30 2.40 -0.50 4.70 -1.20 5.10 -1.60 0.40 -0.35 0.70 -1.40 0.70 -2.35 0 -5.80 6.25 -26.30 11.50 -37.75 4.10 -8.90 11 -22.95 13.30 -27 1 -1.80 3.35 -5.85 5.20 -9 4.10 -7 8.55 -15.05 9.75 -17.65 0.80 -1.75 0.85 -2.40 0.30 -6.75 -0.30 -2.65 -0.90 -7.50 -1.25 -10.70 -0.40 -3.20 -0.85 -6.05 -1 -6.30 -0.15 -0.25 -3.15 0.95 -6.65 2.70 -3.50 1.75 -7.60 3.45 -9.10 3.75 -1.55 0.30 -3.20 0.85 -3.80 1.25 -0.55 0.35 -3.15 1.35 -5.75 2.20 -11 3.60 -20.40 5.05 -30.05 4.75 -5.15 -0.20 -12.60 -1.80 -13.90 -2.95 -0.45 -0.45 -2.30 -1.20 -4.10 -1.80 -1.80 -0.55 -3.80 -1.40 -4.40 -1.95 -0.60 -0.50 -1.90 -1.10 -2.90 -1.30 -2.20 -0.40 -5.65 -2.10 -5.65 -2.70 0 -0.25 -1.20 -0.85 -2.65 -1.25 -1.50 -0.45 -3.25 -1.30 -3.90 -1.90 -0.70 -0.65 -2.15 -1.55 -3.30 -2.10 -1.10 -0.50 -2.30 -1.45 -2.60 -2.10 -0.30 -0.70 -1.50 -1.65 -2.80 -2.20 -1.95 -0.85 -2.30 -1.25 -2.85 -3.20 -0.50 -1.90 -0.85 -2.35 -2.45 -2.95 -1.45 -0.55 -2.15 -1.35 -3.15 -3.25 -0.70 -1.35 -1.95 -3.05 -2.80 -3.80 -1.60 -1.30 -4.50 -6.20 -4.50 -7.50 0 -0.40 -0.45 -1.50 -0.95 -2.40 -1.60 -2.70 -2.95 -7.35 -3.50 -12.20 -0.50 -3.90 -0.45 -4.95 0.25 -7.10 0.95 -2.95 2.50 -4.70 3.20 -3.65 0.20 0.40 0.55 2.20 0.75 4 0.80 7.65 2.20 11.20 7.60 18.90 3.35 4.80 8.55 10 14.45 14.45 3.35 2.55 10.60 6.25 16.95 8.65 1.65 0.65 4.15 1.60 5.50 2.15 6 2.35 18.50 3.10 27.30 1.60 13 -2.20 26.95 -9.15 35.85 -17.85 3.35 -3.25 7.90 -9.65 9.55 -13.40 0.55 -1.20 2.45 -8.20 4.25 -15.50 3.35 -13.50 6 -22.05 8.65 -27.95 1.70 -3.65 4.70 -7.85 13.55 -18.70 6.65 -8.20 8.05 -10.70 9.50 -16.80 0.70 -2.90 1.30 -4.30 2.05 -4.85 3.10 -2.15 3.65 -3 4.80 -7.15 1 -3.65 3.50 -10.90 6 -17.50 0.35 -1 0.80 -4.25 1 -7.25 0.40 -6.30 1.30 -8.75 5 -14 3.35 -4.65 5.55 -6.35 10.10 -7.75 4.40 -1.35 6.65 -3.15 6.65 -5.25 0 -2.05 0.95 -1.30 2.20 1.75 1.15 2.85 3.25 6.25 6.10 9.80 0.90 1.15 3.25 4.70 5.15 7.90 7.05 11.80 15.45 20.85 22.55 24.30 2.30 1.10 4.40 2.20 4.60 2.40 0.20 0.20 0.20 1.10 -0.05 1.95 -0.35 1.30 -0.25 2 0.75 3.85 1.55 2.90 1.50 3.95 -0.15 5.50 l-1.35 1.25 1.05 2.15 c2.65 5.40 4.15 14.05 4.15 24.15 0 14.05 -1.90 27.80 -6.50 46.75 -0.60 2.35 -1.30 5.95 -1.60 8.05 l-0.55 3.75 2.85 8.25 c5.20 14.90 6.70 20.05 8.35 29.70 2.40 13.95 1.50 48.10 -1.40 52.60 -0.80 1.20 -0.30 3.20 3.15 12.15 3.50 9.25 7.65 21.80 8.40 25.50 0.40 2.05 0.80 6 0.90 8.75 l0.15 5 -1.35 0.15 c-1.30 0.15 -1.40 0 -1.40 -1.50 0 -0.90 -0.50 -3.35 -1.05 -5.40 -0.55 -2.05 -1.35 -5.10 -1.75 -6.70 -0.40 -1.65 -1.15 -3.70 -1.70 -4.55 -0.55 -0.90 -1 -2.25 -1 -3.05 0 -0.80 -0.30 -1.95 -0.65 -2.50 -2 -3.50 -2.85 -5.30 -2.85 -6.15 0 -0.55 -0.70 -1.80 -1.55 -2.80 -0.85 -0.95 -2.05 -2.60 -2.65 -3.70 -1.90 -3.45 -3.40 -5.55 -3.75 -5.30 -0.25 0.10 -1.25 1.70 -2.30 3.50 -1.05 1.75 -3.45 4.90 -5.30 6.90 -2.60 2.85 -3.35 3.95 -3.10 4.75 0.45 1.75 -0.85 10.90 -2.35 17 -1.65 6.45 -5.20 13.65 -11.25 22.85 -3.65 5.50 -10.35 12.85 -12.90 14.20 -1.05 0.55 -1.60 0.60 -2.65 0.15 l-1.25 -0.60 3.25 -3.75 c1.80 -2.10 3.65 -4.40 4.15 -5.15 0.45 -0.75 1.25 -1.85 1.80 -2.45 0.55 -0.60 1.15 -2.15 1.40 -3.45 0.25 -1.35 1.05 -3.25 1.75 -4.30 0.70 -1 1.15 -2.05 1 -2.30 -0.15 -0.25 0.40 -1.15 1.15 -2 0.90 -0.95 1.55 -2.35 1.75 -3.80 0.20 -1.20 0.75 -2.75 1.30 -3.40 0.70 -0.95 0.85 -1.70 0.65 -3.30 -0.25 -1.80 -0.10 -2.20 1.15 -3.35 1.20 -1.10 1.45 -1.75 1.50 -3.90 0.05 -1.45 0.25 -3.55 0.45 -4.70 0.45 -2.60 -0.05 -2.75 -2.35 -0.70 -3.60 3.15 -14.10 7.65 -16.10 6.90 -1.25 -0.50 -0.95 -1.70 0.85 -2.90 3.50 -2.45 10.10 -9.40 12.70 -13.35 2.55 -3.95 2.70 -4.35 2.45 -6.50 -0.75 -6.40 -1 -7.45 -1.85 -8.55 -0.55 -0.65 -0.95 -1.65 -0.95 -2.20 0 -1.20 -1.95 -6.80 -2.70 -7.80 -0.30 -0.35 -0.45 -1.30 -0.40 -2.05 0.10 -0.90 -0.30 -2.15 -1.10 -3.35 -0.70 -1.05 -1.40 -2.70 -1.60 -3.65 -0.15 -0.95 -0.70 -3.20 -1.20 -5 -1.20 -4.30 -1.35 -5.30 -2.25 -15 -0.45 -4.55 -1.25 -10.85 -1.80 -14 -2.25 -13.10 -1.80 -21.30 2.05 -35.30 l2.10 -7.55 -1.85 -2.60 c-1 -1.40 -2.15 -2.55 -2.50 -2.55 -0.70 0 -0.75 0.25 -2 20.25 -1.25 19.05 -4.70 38 -8.30 45.10 -0.85 1.70 -1.40 3.30 -1.25 3.60 0.60 0.95 2.35 15.75 2.55 21.40 0.10 3.10 0.35 5.90 0.55 6.25 1.20 1.95 1 21.45 -0.25 23.80 -0.30 0.55 -0.85 2.45 -1.25 4.20 -0.95 4.25 -3.10 12 -4.35 15.65 -0.55 1.65 -1.20 4 -1.45 5.25 -0.20 1.25 -0.90 3.70 -1.45 5.40 -0.70 2.10 -1.05 4.45 -1.05 6.90 0 4.25 -0.70 5.10 -2.75 3.20 -3.20 -3 -3.45 -15.20 -0.60 -31.50 1.40 -8.20 1.45 -22.75 0.10 -29.95 l-0.90 -4.75 -0.90 1.15 c-0.55 0.65 -0.95 1.60 -0.95 2.15 0 0.50 -0.70 1.60 -1.55 2.40 -2.55 2.30 -7.70 16.75 -8.95 25 -0.20 1.50 -0.60 3.30 -0.90 4 -0.25 0.70 -0.50 3.60 -0.50 6.50 -0.05 4 0.10 5.50 0.70 6.45 0.55 0.80 0.75 1.85 0.55 3.10 -0.15 1.20 0 2.25 0.45 2.90 0.40 0.55 0.85 2.20 0.95 3.65 0.10 1.45 0.40 5.15 0.65 8.15 0.25 3.10 0.25 6.25 0 7.25 -0.25 0.95 -0.55 3.10 -0.70 4.75 -0.15 1.65 -0.50 3.30 -0.80 3.65 -0.30 0.35 -0.60 1.70 -0.65 3 -0.05 1.85 -0.65 3.30 -2.75 6.85 -1.45 2.50 -3.10 5.35 -3.65 6.40 -0.55 1.05 -1.40 2.10 -1.90 2.35 -0.50 0.30 -1.50 1.50 -2.20 2.70 -0.70 1.15 -1.80 2.40 -2.50 2.70 -0.70 0.35 -1.35 0.55 -1.40 0.55 -0.05 -0.05 -0.60 -0.20 -1.25 -0.30z m-47.25 -50.65 c2.65 -1.20 10.15 -8.35 14.90 -14.25 9.05 -11.25 15.80 -23.95 17.95 -33.75 2 -9.35 3.05 -21.50 1.80 -21.50 -0.25 0 -1.05 1.10 -1.75 2.50 -0.70 1.35 -2.60 4.55 -4.20 7.10 -1.65 2.55 -4.05 6.35 -5.30 8.40 -5.95 9.50 -6.80 10.85 -8.25 12.25 -0.80 0.85 -1.50 1.80 -1.50 2.15 0 0.40 -0.90 1.95 -2 3.55 -1.10 1.55 -2 3.10 -2 3.45 0 0.85 -3 7.20 -3.90 8.20 -1.25 1.50 -6.60 13.35 -7.55 16.90 -0.55 1.85 -1.20 3.85 -1.50 4.40 -0.95 1.80 0.15 2.05 3.30 0.60z m123.85 -59.95 c0.50 -2.75 0.80 -5.50 0.65 -6.15 -0.25 -1.15 -6.30 -16 -7.50 -18.40 -0.55 -1.10 -0.60 -0.90 -0.75 2.40 -0.20 4.90 1.45 14.40 3.40 19.35 0.85 2.20 1.65 4.85 1.80 5.90 0.55 3.30 1.45 2.10 2.40 -3.10z m-27.75 -199.85 c3.05 -1.55 5.10 -4.35 6.05 -8.15 1.50 -6.40 -3.20 -12.10 -10.20 -12.25 -3.40 -0.05 -6.90 1.75 -8.95 4.60 -1.35 1.90 -1.60 2.70 -1.75 5.90 -0.20 3.25 -0.05 4.05 1.10 6.40 1.05 2.10 1.80 2.95 3.45 3.75 3.05 1.50 6.95 1.40 10.30 -0.25z"/>
  <path d="M351.80 566.90 c-1.25 -4.35 -3.25 -19.75 -3.75 -28.90 -0.40 -7.40 -0.35 -8.55 0.45 -11 0.50 -1.50 1.05 -4 1.25 -5.50 0.20 -1.50 0.65 -3.25 1.05 -3.80 0.35 -0.65 0.65 -2.30 0.60 -4 -0.05 -3.70 0.95 -13.30 1.90 -18.05 0.40 -2 0.70 -4.40 0.70 -5.40 0 -2.60 3.70 -15.20 5.55 -18.85 2.10 -4.15 8.55 -14 11.20 -17.15 1.15 -1.35 3.50 -3.90 5.15 -5.60 l3.05 -3.15 4.35 0 c5.15 0 5.90 0.45 9.85 5.40 4.05 5.10 12.85 21.75 12.85 24.25 0 0.80 -2.75 3.35 -3.60 3.35 -1.65 0 -7.40 3.55 -10.10 6.25 -5.20 5.20 -7.80 11.45 -7.80 18.80 0 2.35 -0.30 4.35 -0.75 5.30 -1.05 2.10 -7.25 20.25 -7.25 21.20 0 0.45 -1.20 1.75 -2.70 2.85 -2.50 1.90 -2.70 2.25 -3.05 4.70 -0.80 6.05 -3.35 10.95 -9.75 18.65 -1.35 1.65 -3.75 4.85 -5.30 7.15 -2.75 4 -3.55 4.75 -3.90 3.50z"/>
  <path d="M446.90 518.80 c-4.10 -1.75 -6.75 -3.70 -11.10 -8.35 -5 -5.35 -9.60 -11.25 -12.40 -16 -1.25 -2.05 -4.15 -6.55 -6.45 -10 -2.40 -3.50 -4.85 -7.85 -5.65 -9.95 -2.55 -6.55 -8.45 -16.65 -12.20 -21 -1.35 -1.50 -3.10 -3.70 -3.95 -4.85 -0.80 -1.15 -2.90 -3.30 -4.60 -4.75 -1.65 -1.45 -3.05 -2.95 -3.05 -3.30 0 -0.35 0.55 -0.85 1.20 -1.20 1.05 -0.45 1.60 -0.30 3.65 0.85 2.75 1.60 5.05 3.95 10.60 10.75 6.10 7.40 10.90 14.85 17 26.15 6.50 12.15 10.20 18.15 13.05 21.40 0.85 0.90 1.50 1.80 1.50 1.95 0 0.65 9.35 9.85 12.30 12.10 1.60 1.25 4 2.70 5.35 3.30 1.30 0.55 2.35 1.20 2.35 1.35 0 0.15 -0.35 0.85 -0.80 1.50 -1.05 1.60 -3 1.60 -6.80 0.05z"/>
  <path d="M451.45 513.55 c-6.90 -3.45 -18.65 -16.05 -23.75 -25.45 -1 -1.85 -3.05 -5.40 -4.50 -7.90 -1.50 -2.50 -2.70 -4.65 -2.70 -4.80 0 -0.65 -5.75 -10.30 -9.15 -15.40 -4.85 -7.25 -10.35 -14.10 -14.50 -18.10 l-3.50 -3.35 1.55 -1.80 c0.90 -0.95 1.90 -2.40 2.35 -3.20 0.40 -0.80 1.15 -1.60 1.70 -1.80 0.55 -0.15 1.80 -1.35 2.85 -2.65 1.05 -1.30 3.50 -4.05 5.45 -6.10 1.95 -2.05 4.35 -4.75 5.35 -6 1 -1.25 3 -3.50 4.45 -5 2.40 -2.45 7.55 -8.35 14 -16.05 1.30 -1.50 5.70 -6.35 9.80 -10.75 4.15 -4.45 8.45 -9.35 9.65 -11 1.20 -1.60 7.80 -8.55 14.70 -15.45 6.95 -6.85 15.15 -15.30 18.25 -18.75 3.10 -3.45 6.40 -7.05 7.35 -8.05 0.95 -0.95 2.45 -2.80 3.30 -4.05 1.50 -2.10 5.25 -6.25 18.10 -20.15 4.85 -5.25 9.55 -10.60 13.30 -15.25 1.20 -1.50 5.25 -5.90 9 -9.75 7.45 -7.80 12.20 -13.10 23.45 -26.50 4.15 -4.95 11.85 -13.70 17.10 -19.50 5.20 -5.75 11.80 -13.10 14.60 -16.25 2.80 -3.15 6.55 -7.35 8.35 -9.30 1.80 -1.90 5.40 -5.95 8 -8.95 2.60 -3 7.35 -8.25 10.50 -11.70 3.20 -3.45 8.10 -8.85 10.95 -12 6.20 -6.90 22.95 -23.35 25.05 -24.65 0.85 -0.50 1.50 -1.10 1.50 -1.40 0 -0.85 12.50 -13.85 34.55 -36.05 15.55 -15.60 23 -22.70 27.95 -26.65 6.15 -4.85 8.60 -6.35 9.30 -5.65 0.75 0.75 -1.60 8.10 -4.50 14.05 -3.05 6.25 -4.65 8.95 -11.05 18.90 -1.50 2.35 -3.10 5.05 -3.45 6 -0.40 0.95 -2.25 4.40 -4.10 7.65 -1.80 3.30 -4.65 8.65 -6.20 11.85 -1.60 3.20 -3.55 6.90 -4.30 8.25 -4.40 7.75 -5.85 10.45 -8.55 15.65 -3.75 7.25 -6.70 12.70 -9.40 17.50 -1.15 2.05 -3.05 5.60 -4.20 7.85 -2.55 5.15 -7 12.60 -11.40 19.20 -5.25 7.85 -11.15 18.05 -25.25 43.80 -2 3.60 -5.70 9.75 -10 16.60 -1.45 2.30 -3.05 5.05 -3.50 6.10 -0.45 1.05 -2.85 5.15 -5.30 9.05 -2.45 3.95 -5.60 9.05 -6.95 11.40 -1.40 2.35 -5.25 9 -8.65 14.75 -3.35 5.80 -6.50 11.05 -7 11.75 -0.45 0.70 -2.35 3.95 -4.25 7.25 -1.85 3.30 -4.25 7.25 -5.25 8.75 -1.05 1.50 -3.95 6.25 -6.45 10.50 -2.55 4.25 -5.80 9.65 -7.25 12 -1.45 2.35 -3.85 6.15 -5.25 8.50 -1.45 2.30 -3.25 5 -4.05 6 -0.75 0.95 -2.90 4.40 -4.80 7.65 -11.35 19.45 -16.25 26.75 -34.05 50.75 -1.15 1.55 -2.95 4.10 -4 5.60 -1.90 2.80 -5 6.50 -18.15 21.80 -4 4.65 -8.40 9.80 -9.75 11.45 -1.35 1.65 -4.15 4.80 -6.25 7 -2.05 2.25 -4.65 5.15 -5.75 6.50 -1.10 1.35 -2.80 3.40 -3.80 4.50 -5.50 6.05 -6.40 7.15 -7.20 8.75 -0.45 0.95 -1.70 2.75 -2.75 4 -1.05 1.25 -2.40 3.45 -3 4.90 -0.65 1.45 -1.60 2.95 -2.20 3.35 -1.40 1 -4.15 0.90 -6.35 -0.20z"/>
 </g>
</svg>